<svg xmlns="http://www.w3.org/2000/svg" xmlns:xlink="http://www.w3.org/1999/xlink" width="500" zoomAndPan="magnify" viewBox="0 0 375 374.999991" height="500" preserveAspectRatio="xMidYMid meet" version="1.0"><defs><clipPath id="772889fcf0"><path d="M 7.359375 21 L 362 21 L 362 356 L 7.359375 356 Z M 7.359375 21 " clip-rule="nonzero"/></clipPath><clipPath id="b7cc1dc90a"><path d="M 104 51 L 128 51 L 128 64 L 104 64 Z M 104 51 " clip-rule="nonzero"/></clipPath><clipPath id="5874475da6"><path d="M 114.460938 53.523438 L 122.46875 51.339844 C 126.355469 50.855469 127.8125 51.824219 126.839844 54.257812 C 125.386719 57.164062 122.707031 59.597656 118.820312 61.542969 C 112.015625 64.453125 107.40625 63.96875 104.984375 60.082031 C 104.003906 58.628906 104.488281 57.402344 106.4375 56.441406 C 107.417969 55.957031 110.085938 54.976562 114.460938 53.523438 Z M 114.460938 53.523438 " clip-rule="evenodd"/></clipPath><radialGradient gradientTransform="matrix(0.581274, 0.813697, 0.813743, -0.58124, 114.747469, -54.482479)" gradientUnits="userSpaceOnUse" r="14.105379" cx="85.637716" id="718e0bdc04" cy="-65.98053" fx="85.637716" fy="-65.98053"><stop stop-opacity="1" stop-color="rgb(48.9151%, 70.877075%, 10.980225%)" offset="0"/><stop stop-opacity="1" stop-color="rgb(48.704529%, 70.574951%, 10.934448%)" offset="0.0078125"/><stop stop-opacity="1" stop-color="rgb(48.452759%, 70.211792%, 10.879517%)" offset="0.0195312"/><stop stop-opacity="1" stop-color="rgb(48.200989%, 69.848633%, 10.824585%)" offset="0.03125"/><stop stop-opacity="1" stop-color="rgb(47.949219%, 69.485474%, 10.769653%)" offset="0.0429688"/><stop stop-opacity="1" stop-color="rgb(47.697449%, 69.122314%, 10.714722%)" offset="0.0546875"/><stop stop-opacity="1" stop-color="rgb(47.444153%, 68.759155%, 10.65979%)" offset="0.0664062"/><stop stop-opacity="1" stop-color="rgb(47.192383%, 68.395996%, 10.604858%)" offset="0.078125"/><stop stop-opacity="1" stop-color="rgb(46.940613%, 68.032837%, 10.549927%)" offset="0.0898438"/><stop stop-opacity="1" stop-color="rgb(46.688843%, 67.669678%, 10.494995%)" offset="0.101562"/><stop stop-opacity="1" stop-color="rgb(46.437073%, 67.306519%, 10.438538%)" offset="0.113281"/><stop stop-opacity="1" stop-color="rgb(46.185303%, 66.941833%, 10.383606%)" offset="0.125"/><stop stop-opacity="1" stop-color="rgb(45.933533%, 66.578674%, 10.328674%)" offset="0.136719"/><stop stop-opacity="1" stop-color="rgb(45.681763%, 66.215515%, 10.273743%)" offset="0.148438"/><stop stop-opacity="1" stop-color="rgb(45.429993%, 65.852356%, 10.218811%)" offset="0.160156"/><stop stop-opacity="1" stop-color="rgb(45.176697%, 65.489197%, 10.163879%)" offset="0.171875"/><stop stop-opacity="1" stop-color="rgb(44.924927%, 65.126038%, 10.108948%)" offset="0.183594"/><stop stop-opacity="1" stop-color="rgb(44.673157%, 64.762878%, 10.054016%)" offset="0.195312"/><stop stop-opacity="1" stop-color="rgb(44.421387%, 64.399719%, 9.999084%)" offset="0.207031"/><stop stop-opacity="1" stop-color="rgb(44.169617%, 64.03656%, 9.944153%)" offset="0.21875"/><stop stop-opacity="1" stop-color="rgb(43.917847%, 63.673401%, 9.887695%)" offset="0.230469"/><stop stop-opacity="1" stop-color="rgb(43.666077%, 63.310242%, 9.832764%)" offset="0.242188"/><stop stop-opacity="1" stop-color="rgb(43.455505%, 63.006592%, 9.786987%)" offset="0.253906"/><stop stop-opacity="1" stop-color="rgb(43.287659%, 62.763977%, 9.750366%)" offset="0.261719"/><stop stop-opacity="1" stop-color="rgb(43.119812%, 62.522888%, 9.713745%)" offset="0.269531"/><stop stop-opacity="1" stop-color="rgb(42.951965%, 62.280273%, 9.677124%)" offset="0.277344"/><stop stop-opacity="1" stop-color="rgb(42.784119%, 62.037659%, 9.640503%)" offset="0.285156"/><stop stop-opacity="1" stop-color="rgb(42.616272%, 61.795044%, 9.603882%)" offset="0.292969"/><stop stop-opacity="1" stop-color="rgb(42.448425%, 61.553955%, 9.567261%)" offset="0.300781"/><stop stop-opacity="1" stop-color="rgb(42.280579%, 61.31134%, 9.53064%)" offset="0.308594"/><stop stop-opacity="1" stop-color="rgb(42.112732%, 61.068726%, 9.494019%)" offset="0.316406"/><stop stop-opacity="1" stop-color="rgb(41.944885%, 60.826111%, 9.457397%)" offset="0.324219"/><stop stop-opacity="1" stop-color="rgb(41.777039%, 60.585022%, 9.420776%)" offset="0.332031"/><stop stop-opacity="1" stop-color="rgb(41.609192%, 60.342407%, 9.384155%)" offset="0.339844"/><stop stop-opacity="1" stop-color="rgb(41.441345%, 60.099792%, 9.347534%)" offset="0.347656"/><stop stop-opacity="1" stop-color="rgb(41.271973%, 59.858704%, 9.309387%)" offset="0.355469"/><stop stop-opacity="1" stop-color="rgb(41.104126%, 59.616089%, 9.272766%)" offset="0.363281"/><stop stop-opacity="1" stop-color="rgb(40.936279%, 59.373474%, 9.236145%)" offset="0.371094"/><stop stop-opacity="1" stop-color="rgb(40.768433%, 59.130859%, 9.199524%)" offset="0.378906"/><stop stop-opacity="1" stop-color="rgb(40.600586%, 58.889771%, 9.162903%)" offset="0.386719"/><stop stop-opacity="1" stop-color="rgb(40.432739%, 58.647156%, 9.126282%)" offset="0.394531"/><stop stop-opacity="1" stop-color="rgb(40.264893%, 58.404541%, 9.089661%)" offset="0.402344"/><stop stop-opacity="1" stop-color="rgb(40.097046%, 58.163452%, 9.05304%)" offset="0.410156"/><stop stop-opacity="1" stop-color="rgb(39.929199%, 57.920837%, 9.016418%)" offset="0.417969"/><stop stop-opacity="1" stop-color="rgb(39.761353%, 57.678223%, 8.979797%)" offset="0.425781"/><stop stop-opacity="1" stop-color="rgb(39.593506%, 57.435608%, 8.943176%)" offset="0.433594"/><stop stop-opacity="1" stop-color="rgb(39.425659%, 57.194519%, 8.906555%)" offset="0.441406"/><stop stop-opacity="1" stop-color="rgb(39.256287%, 56.951904%, 8.869934%)" offset="0.449219"/><stop stop-opacity="1" stop-color="rgb(39.08844%, 56.70929%, 8.833313%)" offset="0.457031"/><stop stop-opacity="1" stop-color="rgb(38.920593%, 56.468201%, 8.796692%)" offset="0.464844"/><stop stop-opacity="1" stop-color="rgb(38.752747%, 56.225586%, 8.760071%)" offset="0.472656"/><stop stop-opacity="1" stop-color="rgb(38.5849%, 55.982971%, 8.721924%)" offset="0.480469"/><stop stop-opacity="1" stop-color="rgb(38.417053%, 55.740356%, 8.685303%)" offset="0.488281"/><stop stop-opacity="1" stop-color="rgb(38.249207%, 55.499268%, 8.648682%)" offset="0.496094"/><stop stop-opacity="1" stop-color="rgb(38.038635%, 55.197144%, 8.602905%)" offset="0.503906"/><stop stop-opacity="1" stop-color="rgb(37.786865%, 54.832458%, 8.547974%)" offset="0.515625"/><stop stop-opacity="1" stop-color="rgb(37.535095%, 54.469299%, 8.493042%)" offset="0.527344"/><stop stop-opacity="1" stop-color="rgb(37.283325%, 54.10614%, 8.43811%)" offset="0.539062"/><stop stop-opacity="1" stop-color="rgb(37.031555%, 53.742981%, 8.383179%)" offset="0.550781"/><stop stop-opacity="1" stop-color="rgb(36.778259%, 53.379822%, 8.328247%)" offset="0.5625"/><stop stop-opacity="1" stop-color="rgb(36.526489%, 53.016663%, 8.273315%)" offset="0.574219"/><stop stop-opacity="1" stop-color="rgb(36.274719%, 52.653503%, 8.218384%)" offset="0.585938"/><stop stop-opacity="1" stop-color="rgb(36.022949%, 52.290344%, 8.161926%)" offset="0.597656"/><stop stop-opacity="1" stop-color="rgb(35.771179%, 51.927185%, 8.106995%)" offset="0.609375"/><stop stop-opacity="1" stop-color="rgb(35.519409%, 51.564026%, 8.052063%)" offset="0.621094"/><stop stop-opacity="1" stop-color="rgb(35.310364%, 51.260376%, 8.006287%)" offset="0.632812"/><stop stop-opacity="1" stop-color="rgb(35.142517%, 51.017761%, 7.969666%)" offset="0.640625"/><stop stop-opacity="1" stop-color="rgb(34.973145%, 50.776672%, 7.933044%)" offset="0.648438"/><stop stop-opacity="1" stop-color="rgb(34.805298%, 50.534058%, 7.896423%)" offset="0.65625"/><stop stop-opacity="1" stop-color="rgb(34.637451%, 50.291443%, 7.859802%)" offset="0.664062"/><stop stop-opacity="1" stop-color="rgb(34.469604%, 50.048828%, 7.823181%)" offset="0.671875"/><stop stop-opacity="1" stop-color="rgb(34.301758%, 49.807739%, 7.78656%)" offset="0.679688"/><stop stop-opacity="1" stop-color="rgb(34.133911%, 49.565125%, 7.749939%)" offset="0.6875"/><stop stop-opacity="1" stop-color="rgb(33.966064%, 49.32251%, 7.713318%)" offset="0.695312"/><stop stop-opacity="1" stop-color="rgb(33.798218%, 49.081421%, 7.676697%)" offset="0.703125"/><stop stop-opacity="1" stop-color="rgb(33.630371%, 48.838806%, 7.640076%)" offset="0.710938"/><stop stop-opacity="1" stop-color="rgb(33.462524%, 48.596191%, 7.603455%)" offset="0.71875"/><stop stop-opacity="1" stop-color="rgb(33.294678%, 48.353577%, 7.565308%)" offset="0.726562"/><stop stop-opacity="1" stop-color="rgb(33.126831%, 48.112488%, 7.528687%)" offset="0.734375"/><stop stop-opacity="1" stop-color="rgb(32.957458%, 47.869873%, 7.492065%)" offset="0.742188"/><stop stop-opacity="1" stop-color="rgb(32.789612%, 47.627258%, 7.455444%)" offset="0.75"/><stop stop-opacity="1" stop-color="rgb(32.579041%, 47.325134%, 7.409668%)" offset="0.757812"/><stop stop-opacity="1" stop-color="rgb(32.327271%, 46.961975%, 7.354736%)" offset="0.769531"/><stop stop-opacity="1" stop-color="rgb(32.0755%, 46.598816%, 7.299805%)" offset="0.78125"/><stop stop-opacity="1" stop-color="rgb(31.82373%, 46.235657%, 7.244873%)" offset="0.792969"/><stop stop-opacity="1" stop-color="rgb(31.57196%, 45.872498%, 7.189941%)" offset="0.804688"/><stop stop-opacity="1" stop-color="rgb(31.362915%, 45.568848%, 7.144165%)" offset="0.816406"/><stop stop-opacity="1" stop-color="rgb(31.195068%, 45.326233%, 7.107544%)" offset="0.824219"/><stop stop-opacity="1" stop-color="rgb(31.027222%, 45.085144%, 7.070923%)" offset="0.832031"/><stop stop-opacity="1" stop-color="rgb(30.857849%, 44.842529%, 7.034302%)" offset="0.839844"/><stop stop-opacity="1" stop-color="rgb(30.690002%, 44.599915%, 6.996155%)" offset="0.847656"/><stop stop-opacity="1" stop-color="rgb(30.522156%, 44.358826%, 6.959534%)" offset="0.855469"/><stop stop-opacity="1" stop-color="rgb(30.354309%, 44.116211%, 6.922913%)" offset="0.863281"/><stop stop-opacity="1" stop-color="rgb(30.186462%, 43.873596%, 6.886292%)" offset="0.871094"/><stop stop-opacity="1" stop-color="rgb(29.975891%, 43.571472%, 6.840515%)" offset="0.878906"/><stop stop-opacity="1" stop-color="rgb(29.724121%, 43.208313%, 6.785583%)" offset="0.890625"/><stop stop-opacity="1" stop-color="rgb(29.472351%, 42.845154%, 6.730652%)" offset="0.902344"/><stop stop-opacity="1" stop-color="rgb(29.263306%, 42.541504%, 6.684875%)" offset="0.914062"/><stop stop-opacity="1" stop-color="rgb(29.095459%, 42.298889%, 6.648254%)" offset="0.921875"/><stop stop-opacity="1" stop-color="rgb(28.927612%, 42.0578%, 6.611633%)" offset="0.929688"/><stop stop-opacity="1" stop-color="rgb(28.75824%, 41.815186%, 6.575012%)" offset="0.9375"/><stop stop-opacity="1" stop-color="rgb(28.547668%, 41.513062%, 6.529236%)" offset="0.945312"/><stop stop-opacity="1" stop-color="rgb(28.338623%, 41.209412%, 6.483459%)" offset="0.957031"/><stop stop-opacity="1" stop-color="rgb(28.170776%, 40.966797%, 6.445312%)" offset="0.964844"/><stop stop-opacity="1" stop-color="rgb(27.960205%, 40.664673%, 6.399536%)" offset="0.972656"/><stop stop-opacity="1" stop-color="rgb(27.75116%, 40.362549%, 6.35376%)" offset="0.984375"/><stop stop-opacity="1" stop-color="rgb(27.583313%, 40.119934%, 6.317139%)" offset="0.992188"/><stop stop-opacity="1" stop-color="rgb(27.49939%, 39.99939%, 6.298828%)" offset="1"/></radialGradient><clipPath id="0cad640756"><path d="M 103 48 L 126 48 L 126 62 L 103 62 Z M 103 48 " clip-rule="nonzero"/></clipPath><clipPath id="5f6e6dce6e"><path d="M 113.003906 49.152344 C 115.921875 48.183594 119.078125 48.183594 122.480469 49.152344 C 125.882812 50.605469 126.605469 52.554688 124.664062 54.976562 C 121.757812 57.894531 118.355469 59.832031 114.46875 60.804688 C 110.097656 62.257812 106.941406 62.019531 104.996094 60.070312 C 103.054688 58.132812 102.5625 56.433594 103.539062 54.96875 C 104.5 53.523438 107.65625 51.574219 113.003906 49.152344 Z M 113.003906 49.152344 " clip-rule="evenodd"/></clipPath><radialGradient gradientTransform="matrix(0.581274, 0.813697, 0.813743, -0.581241, 114.874376, -54.588409)" gradientUnits="userSpaceOnUse" r="14.104971" cx="82.997846" id="209151221f" cy="-66.06605" fx="82.997846" fy="-66.06605"><stop stop-opacity="1" stop-color="rgb(48.883057%, 70.826721%, 10.974121%)" offset="0"/><stop stop-opacity="1" stop-color="rgb(48.666382%, 70.504761%, 10.926819%)" offset="0.03125"/><stop stop-opacity="1" stop-color="rgb(48.46344%, 70.204163%, 10.882568%)" offset="0.0585938"/><stop stop-opacity="1" stop-color="rgb(48.262024%, 69.903564%, 10.839844%)" offset="0.0859375"/><stop stop-opacity="1" stop-color="rgb(48.059082%, 69.60144%, 10.795593%)" offset="0.113281"/><stop stop-opacity="1" stop-color="rgb(47.871399%, 69.322205%, 10.754395%)" offset="0.140625"/><stop stop-opacity="1" stop-color="rgb(47.697449%, 69.064331%, 10.717773%)" offset="0.164062"/><stop stop-opacity="1" stop-color="rgb(47.525024%, 68.806458%, 10.679626%)" offset="0.1875"/><stop stop-opacity="1" stop-color="rgb(47.351074%, 68.548584%, 10.643005%)" offset="0.210938"/><stop stop-opacity="1" stop-color="rgb(47.17865%, 68.292236%, 10.604858%)" offset="0.234375"/><stop stop-opacity="1" stop-color="rgb(47.018433%, 68.055725%, 10.571289%)" offset="0.257812"/><stop stop-opacity="1" stop-color="rgb(46.873474%, 67.840576%, 10.539246%)" offset="0.277344"/><stop stop-opacity="1" stop-color="rgb(46.730042%, 67.625427%, 10.508728%)" offset="0.296875"/><stop stop-opacity="1" stop-color="rgb(46.585083%, 67.410278%, 10.476685%)" offset="0.316406"/><stop stop-opacity="1" stop-color="rgb(46.440125%, 67.196655%, 10.446167%)" offset="0.335938"/><stop stop-opacity="1" stop-color="rgb(46.296692%, 66.981506%, 10.414124%)" offset="0.355469"/><stop stop-opacity="1" stop-color="rgb(46.151733%, 66.766357%, 10.383606%)" offset="0.375"/><stop stop-opacity="1" stop-color="rgb(45.948792%, 66.465759%, 10.339355%)" offset="0.394531"/><stop stop-opacity="1" stop-color="rgb(45.689392%, 66.078186%, 10.282898%)" offset="0.429688"/><stop stop-opacity="1" stop-color="rgb(45.443726%, 65.713501%, 10.229492%)" offset="0.464844"/><stop stop-opacity="1" stop-color="rgb(45.211792%, 65.370178%, 10.180664%)" offset="0.496094"/><stop stop-opacity="1" stop-color="rgb(44.995117%, 65.046692%, 10.133362%)" offset="0.527344"/><stop stop-opacity="1" stop-color="rgb(44.792175%, 64.746094%, 10.089111%)" offset="0.554688"/><stop stop-opacity="1" stop-color="rgb(44.604492%, 64.466858%, 10.049438%)" offset="0.582031"/><stop stop-opacity="1" stop-color="rgb(44.432068%, 64.208984%, 10.011292%)" offset="0.605469"/><stop stop-opacity="1" stop-color="rgb(44.271851%, 63.973999%, 9.977722%)" offset="0.628906"/><stop stop-opacity="1" stop-color="rgb(44.128418%, 63.75885%, 9.945679%)" offset="0.648438"/><stop stop-opacity="1" stop-color="rgb(43.983459%, 63.543701%, 9.915161%)" offset="0.667969"/><stop stop-opacity="1" stop-color="rgb(43.838501%, 63.328552%, 9.883118%)" offset="0.6875"/><stop stop-opacity="1" stop-color="rgb(43.637085%, 63.027954%, 9.838867%)" offset="0.707031"/><stop stop-opacity="1" stop-color="rgb(43.391418%, 62.663269%, 9.785461%)" offset="0.742188"/><stop stop-opacity="1" stop-color="rgb(43.174744%, 62.339783%, 9.739685%)" offset="0.773438"/><stop stop-opacity="1" stop-color="rgb(42.987061%, 62.060547%, 9.698486%)" offset="0.800781"/><stop stop-opacity="1" stop-color="rgb(42.826843%, 61.825562%, 9.664917%)" offset="0.824219"/><stop stop-opacity="1" stop-color="rgb(42.683411%, 61.610413%, 9.632874%)" offset="0.84375"/><stop stop-opacity="1" stop-color="rgb(42.495728%, 61.331177%, 9.591675%)" offset="0.863281"/><stop stop-opacity="1" stop-color="rgb(42.292786%, 61.029053%, 9.54895%)" offset="0.894531"/><stop stop-opacity="1" stop-color="rgb(42.134094%, 60.794067%, 9.513855%)" offset="0.917969"/><stop stop-opacity="1" stop-color="rgb(41.946411%, 60.514832%, 9.474182%)" offset="0.9375"/><stop stop-opacity="1" stop-color="rgb(41.714478%, 60.169983%, 9.423828%)" offset="0.96875"/><stop stop-opacity="1" stop-color="rgb(41.598511%, 59.999084%, 9.399414%)" offset="1"/></radialGradient></defs><g clip-path="url(#772889fcf0)"><path fill="#d66915" d="M 268.191406 43.328125 C 308.019531 62.75 333.773438 86.792969 345.421875 115.441406 C 364.847656 161.585938 366.558594 208.691406 350.527344 256.785156 C 330.132812 318.949219 281.550781 351.734375 204.816406 355.125 C 133.902344 358.527344 81.445312 342.507812 47.445312 307.050781 C 21.207031 279.847656 7.84375 244.886719 7.359375 202.144531 C 6.875 157.957031 18.289062 120.554688 41.597656 89.949219 C 63.941406 59.84375 95.023438 39.195312 134.851562 28.027344 C 179.050781 15.882812 223.507812 20.976562 268.191406 43.328125 Z M 268.191406 43.328125 " fill-opacity="1" fill-rule="evenodd"/></g><path fill="#eb7805" d="M 311.90625 102.339844 C 314.328125 103.308594 316.277344 106.226562 317.730469 111.082031 C 319.679688 114.96875 321.371094 118.371094 322.84375 121.277344 C 323.328125 123.214844 323.328125 126.378906 322.84375 130.75 C 321.378906 141.917969 320.894531 148.96875 321.378906 151.875 C 321.875 153.328125 323.089844 155.523438 325.03125 158.441406 C 326.484375 161.351562 327.710938 165.484375 328.667969 170.824219 C 330.617188 180.535156 331.101562 188.785156 330.132812 195.585938 C 329.144531 201.90625 328.667969 210.894531 328.667969 222.546875 C 328.667969 224 329.152344 227.410156 330.132812 232.753906 C 331.101562 236.640625 331.101562 240.277344 330.132812 243.671875 C 329.144531 247.566406 325.019531 252.414062 317.730469 258.246094 C 308.027344 265.527344 302.925781 269.421875 302.429688 269.90625 C 294.171875 280.105469 290.046875 288.125 290.046875 293.949219 C 290.046875 296.382812 285.191406 301.476562 275.46875 309.246094 C 266.242188 316.535156 258.953125 321.144531 253.613281 323.082031 L 221.558594 336.195312 C 216.21875 338.628906 211.601562 338.878906 207.722656 336.917969 C 201.414062 334.019531 196.546875 332.558594 193.15625 332.558594 C 181.980469 332.558594 170.082031 330.855469 157.453125 327.453125 C 155.027344 326.476562 151.875 326.960938 147.976562 328.910156 C 143.613281 330.363281 138.5 330.609375 132.6875 329.628906 C 129.285156 329.144531 119.808594 328.910156 104.261719 328.910156 C 100.859375 328.910156 96.734375 327.207031 91.878906 323.804688 C 87.023438 320.886719 83.632812 317.96875 81.683594 315.0625 C 81.199219 312.144531 80.703125 309.960938 80.230469 308.507812 C 78.777344 306.074219 74.402344 302.433594 67.113281 297.578125 C 58.855469 292.734375 54 289.566406 52.535156 288.113281 C 51.558594 287.621094 49.136719 285.195312 45.246094 280.824219 C 39.421875 275.484375 35.289062 271.125 32.867188 267.722656 C 28.980469 262.371094 27.039062 255.332031 27.039062 246.585938 C 27.039062 238.816406 26.554688 232.496094 25.585938 227.648438 C 24.605469 223.277344 23.886719 219.144531 23.402344 215.257812 C 23.402344 212.835938 21.945312 205.792969 19.027344 194.125 C 16.121094 183.925781 15.140625 177.132812 16.121094 173.722656 C 18.058594 167.414062 19.761719 159.390625 21.226562 149.679688 C 23.65625 131.226562 26.574219 120.050781 29.957031 116.175781 C 30.453125 115.679688 32.152344 112.277344 35.0625 105.96875 C 37.492188 100.144531 40.402344 96.496094 43.804688 95.039062 C 46.722656 93.585938 49.15625 91.886719 51.09375 89.9375 C 54.980469 86.535156 58.867188 83.390625 62.742188 80.472656 C 64.691406 79.007812 69.0625 73.433594 75.867188 63.71875 C 80.238281 56.917969 86.796875 53.277344 95.539062 52.792969 C 112.046875 51.339844 129.058594 47.203125 146.53125 40.410156 C 166.453125 32.636719 186.855469 31.90625 207.734375 38.226562 L 211.371094 38.226562 C 219.144531 39.195312 227.402344 42.113281 236.148438 46.96875 C 246.34375 52.792969 252.664062 55.957031 255.085938 56.441406 C 259.449219 57.894531 264.324219 59.113281 269.664062 60.082031 C 273.550781 61.542969 275.972656 64.453125 276.945312 68.824219 C 277.921875 72.710938 278.882812 74.894531 279.859375 75.378906 C 284.71875 77.320312 288.121094 79.019531 290.058594 80.484375 C 294.914062 83.402344 297.820312 86.308594 298.800781 89.226562 C 300.253906 93.597656 301.71875 96.515625 303.171875 97.96875 C 304.617188 98.925781 307.535156 100.390625 311.90625 102.339844 Z M 311.90625 102.339844 " fill-opacity="1" fill-rule="evenodd"/><path fill="#f98b0e" d="M 182.214844 55.699219 C 193.382812 58.617188 201.402344 61.289062 206.257812 63.71875 L 224.476562 77.554688 C 233.21875 84.359375 239.53125 88.246094 243.425781 89.214844 C 246.332031 89.699219 251.4375 94.320312 258.714844 103.050781 C 266.003906 110.824219 270.871094 117.382812 273.292969 122.722656 C 276.695312 129.523438 279.355469 139.722656 281.316406 153.320312 C 283.738281 162.0625 284.71875 172.753906 284.234375 185.382812 C 283.738281 196.546875 282.53125 203.589844 280.582031 206.503906 C 279.128906 207.960938 277.179688 213.546875 274.757812 223.257812 C 272.820312 232 271.839844 238.308594 271.839844 242.195312 C 271.839844 246.566406 265.292969 252.394531 252.167969 259.679688 C 247.324219 262.597656 241.25 267.21875 233.953125 273.527344 C 225.703125 281.289062 219.628906 286.640625 215.734375 289.558594 C 210.394531 293.445312 206.507812 295.136719 204.082031 294.660156 C 195.332031 293.683594 189.503906 293.207031 186.585938 293.207031 C 178.339844 293.691406 173.71875 294.660156 172.75 296.113281 C 170.8125 300.484375 169.597656 302.671875 169.113281 302.671875 C 166.679688 305.09375 162.554688 305.828125 156.730469 304.855469 C 149.441406 303.402344 143.128906 302.433594 137.789062 301.949219 C 131.953125 300.96875 124.191406 301.21875 114.480469 302.671875 C 108.652344 302.671875 101.363281 301.453125 92.621094 299.03125 C 88.734375 298.054688 85.578125 295.878906 83.148438 292.476562 C 79.746094 288.113281 77.558594 285.433594 76.589844 284.453125 C 65.898438 281.054688 58.855469 276.691406 55.453125 271.351562 C 51.082031 267.453125 46.960938 262.847656 43.070312 257.507812 C 40.628906 254.597656 37.960938 246.585938 35.042969 233.464844 C 32.609375 219.867188 30.917969 211.609375 29.9375 208.691406 C 28.96875 205.300781 28.496094 201.648438 28.496094 197.761719 C 28.980469 193.875 29.214844 190.96875 29.214844 189.03125 C 25.8125 177.371094 24.597656 169.113281 25.578125 164.257812 C 26.0625 158.917969 29.9375 148.710938 37.226562 133.660156 C 40.144531 128.308594 41.125 122.492188 40.144531 116.175781 C 39.660156 111.804688 40.628906 108.152344 43.0625 105.246094 C 46.949219 102.8125 49.855469 100.378906 51.796875 97.957031 C 55.691406 94.554688 62.488281 87.265625 72.199219 76.101562 C 76.570312 71.246094 80.210938 69.0625 83.128906 69.535156 C 85.066406 70.019531 87.25 70.515625 89.683594 70.988281 C 92.601562 70.503906 102.796875 65.410156 120.285156 55.691406 C 125.140625 53.75 129.996094 52.78125 134.851562 52.78125 C 142.140625 53.265625 147.71875 53.265625 151.605469 52.78125 C 158.894531 51.824219 169.101562 52.792969 182.214844 55.699219 Z M 182.214844 55.699219 " fill-opacity="1" fill-rule="evenodd"/><path fill="#ba5106" d="M 174.925781 46.96875 L 164 47.6875 C 156.710938 47.6875 142.625 52.554688 121.746094 62.265625 C 118.832031 63.71875 114.945312 66.390625 110.085938 70.277344 C 106.695312 73.195312 102.5625 75.132812 97.707031 76.113281 C 89.445312 78.535156 80.21875 83.886719 70.011719 92.132812 C 70.507812 90.195312 72.929688 87.039062 77.300781 82.660156 C 82.15625 78.289062 88.476562 74.886719 96.25 72.460938 L 86.777344 71.007812 C 83.859375 70.523438 81.1875 70.761719 78.753906 71.730469 L 75.117188 73.195312 L 82.394531 68.824219 C 88.714844 66.390625 94.539062 66.144531 99.890625 68.089844 C 105.230469 69.546875 107.417969 69.308594 106.449219 67.371094 C 105.480469 63.96875 105.480469 61.792969 106.449219 60.8125 C 107.902344 59.359375 108.386719 57.90625 107.902344 56.441406 C 106.933594 53.523438 106.449219 51.101562 106.449219 49.152344 C 106.933594 43.8125 108.882812 38.472656 112.28125 33.121094 L 110.820312 36.039062 C 109.367188 42.347656 110.085938 48.183594 113.003906 53.523438 C 114.945312 57.894531 115.429688 57.894531 114.460938 53.523438 C 113.972656 51.585938 116.398438 46.71875 121.746094 38.957031 C 127.089844 30.707031 132.4375 26.328125 137.78125 25.84375 C 128.066406 37.007812 123.210938 44.78125 123.210938 49.152344 L 127.574219 49.886719 C 131.945312 49.886719 137.78125 49.152344 145.070312 47.699219 C 156.71875 45.265625 166.667969 45.027344 174.925781 46.96875 Z M 174.925781 46.96875 " fill-opacity="1" fill-rule="evenodd"/><path fill="#ba5106" d="M 124.65625 44.050781 C 128.550781 39.679688 133.160156 37.246094 138.5 36.761719 C 139.957031 39.679688 139.71875 42.585938 137.78125 45.503906 C 135.839844 48.90625 131.707031 52.058594 125.398438 54.976562 L 144.335938 53.523438 C 149.675781 54.007812 155.027344 53.761719 160.367188 52.800781 C 147.738281 61.050781 138.511719 65.183594 132.6875 65.183594 C 129.285156 65.667969 125.398438 64.9375 121.027344 62.988281 L 115.933594 60.082031 C 114.480469 71.257812 110.34375 77.8125 103.550781 79.75 C 99.179688 81.203125 95.042969 81.691406 91.167969 81.203125 L 86.777344 80.484375 C 89.683594 76.597656 94.789062 72.710938 102.078125 68.824219 L 113.003906 61.542969 L 90.425781 57.894531 L 94.789062 55.699219 C 98.675781 54.730469 102.3125 54.730469 105.714844 55.699219 L 113.003906 56.433594 Z M 124.65625 44.050781 " fill-opacity="1" fill-rule="evenodd"/><path fill="#7db51c" d="M 119.5625 39.679688 C 121.511719 36.761719 124.914062 33.359375 129.757812 29.484375 C 135.101562 33.371094 136.800781 36.523438 134.863281 38.957031 L 122.480469 51.339844 L 142.152344 47.6875 C 148.957031 47.203125 154.296875 47.6875 158.183594 49.144531 C 155.265625 52.546875 148.957031 55.945312 139.234375 59.339844 C 133.410156 61.277344 127.820312 62.019531 122.480469 61.535156 L 115.921875 60.070312 C 114.46875 65.421875 111.304688 69.78125 106.449219 73.183594 C 101.59375 76.585938 93.570312 77.804688 82.40625 76.824219 C 80.941406 76.347656 81.1875 74.648438 83.136719 71.730469 C 87.507812 65.421875 94.789062 60.804688 104.996094 57.894531 C 100.621094 58.378906 96.734375 57.894531 93.332031 56.441406 L 86.054688 50.617188 L 94.074219 49.164062 C 100.386719 48.195312 106.210938 49.164062 111.5625 52.070312 Z M 119.5625 39.679688 " fill-opacity="1" fill-rule="evenodd"/><path fill="#6a9918" d="M 142.152344 51.339844 C 134.863281 52.792969 128.304688 54.742188 122.480469 57.164062 L 115.921875 60.082031 C 114.46875 65.429688 111.304688 69.792969 106.449219 73.195312 C 101.59375 76.597656 93.570312 77.8125 82.40625 76.832031 L 81.671875 76.113281 L 88.960938 73.195312 C 95.273438 70.761719 103.046875 66.390625 112.273438 60.082031 L 123.203125 51.339844 L 142.140625 47.6875 C 148.945312 47.203125 154.285156 47.6875 158.171875 49.144531 Z M 142.152344 51.339844 " fill-opacity="1" fill-rule="evenodd"/><g clip-path="url(#b7cc1dc90a)"><g clip-path="url(#5874475da6)"><path fill="url(#718e0bdc04)" d="M 97.574219 55.449219 L 119.769531 39.59375 L 134.242188 59.859375 L 112.046875 75.710938 Z M 97.574219 55.449219 " fill-rule="nonzero"/></g></g><g clip-path="url(#0cad640756)"><g clip-path="url(#5f6e6dce6e)"><path fill="url(#209151221f)" d="M 95.90625 52.9375 L 118.480469 36.8125 L 133.261719 57.5 L 110.683594 73.628906 Z M 95.90625 52.9375 " fill-rule="nonzero"/></g></g><path fill="#d7e34f" d="M 116.644531 49.886719 C 119.5625 50.371094 117.375 51.824219 110.085938 54.257812 C 108.632812 53.761719 109.117188 52.800781 111.542969 51.339844 C 113.488281 50.359375 115.179688 49.886719 116.644531 49.886719 Z M 116.644531 49.886719 " fill-opacity="1" fill-rule="evenodd"/><path fill="#f5a510" d="M 188.773438 93.585938 C 196.535156 98.441406 207.476562 111.554688 221.550781 132.925781 C 223.496094 134.875 225.199219 139.730469 226.652344 147.503906 C 228.105469 158.195312 229.570312 165.710938 231.023438 170.082031 C 234.425781 181.246094 229.570312 196.0625 216.445312 214.527344 C 214.507812 219.867188 208.917969 225.9375 199.691406 232.742188 C 197.753906 234.1875 191.917969 238.566406 182.207031 245.855469 C 179.289062 248.277344 175.402344 249.257812 170.546875 248.761719 C 164.226562 247.792969 158.886719 247.0625 154.515625 246.578125 C 150.628906 246.578125 146.742188 248.515625 142.851562 252.402344 C 138.964844 257.257812 135.078125 259.679688 131.203125 259.679688 C 122.945312 260.660156 114.6875 261.136719 106.429688 261.136719 C 93.3125 261.136719 84.324219 259.929688 79.476562 257.496094 C 74.613281 255.074219 71.941406 253.609375 71.457031 253.132812 C 70.003906 251.679688 68.054688 248.03125 65.632812 242.207031 C 64.175781 238.804688 58.828125 231.289062 49.601562 219.617188 C 41.351562 209.433594 37.464844 203.113281 37.949219 200.679688 C 38.433594 198.257812 38.433594 195.578125 37.949219 192.671875 L 35.761719 185.382812 C 34.792969 180.042969 35.277344 175.175781 37.21875 170.8125 L 43.773438 158.433594 C 45.226562 156.492188 45.960938 153.8125 45.960938 150.410156 L 45.960938 140.9375 C 46.445312 137.050781 50.332031 130.496094 57.621094 121.265625 C 65.867188 112.523438 70.25 107.433594 70.734375 105.96875 C 72.1875 104.03125 74.621094 102.8125 78.023438 102.328125 C 82.386719 102.328125 86.035156 101.597656 88.953125 100.144531 C 91.859375 99.164062 94.777344 96.019531 97.695312 90.667969 C 100.601562 86.296875 107.171875 83.863281 117.367188 83.390625 C 122.222656 81.441406 126.839844 80.472656 131.210938 80.472656 C 139.957031 79.988281 144.8125 79.742188 145.78125 79.742188 C 156.957031 78.296875 171.289062 82.90625 188.773438 93.585938 Z M 188.773438 93.585938 " fill-opacity="1" fill-rule="evenodd"/><path fill="#f7b61c" d="M 164.730469 123.464844 C 166.183594 128.320312 167.410156 130.988281 168.371094 131.472656 C 170.804688 133.421875 172.019531 136.09375 172.019531 139.484375 C 172.503906 143.855469 173.472656 147.265625 174.9375 149.691406 C 176.875 153.09375 177.605469 156.492188 177.121094 159.894531 C 176.636719 162.320312 176.152344 165.722656 175.667969 170.09375 L 176.402344 181.019531 C 176.402344 185.390625 175.421875 188.792969 173.484375 191.226562 C 172.03125 193.164062 168.875 197.050781 164.007812 202.886719 C 159.636719 208.226562 154.296875 211.628906 147.976562 213.082031 C 140.699219 214.535156 135.839844 215.503906 133.410156 215.988281 C 130.5 216.96875 127.582031 218.90625 124.664062 221.824219 C 121.273438 224.742188 117.140625 225.957031 112.292969 225.464844 C 105.003906 224.496094 98.445312 223.527344 92.621094 222.546875 C 85.816406 222.0625 81.929688 221.09375 80.960938 219.628906 C 80.476562 218.183594 79.261719 216.957031 77.320312 215.988281 C 72.949219 214.050781 70.289062 208.464844 69.3125 199.238281 C 68.824219 196.328125 67.855469 194.132812 66.394531 192.691406 C 63.484375 189.289062 61.300781 186.617188 59.835938 184.667969 C 57.402344 180.308594 56.679688 177.144531 57.648438 175.195312 C 58.621094 173.257812 59.09375 171.554688 59.09375 170.09375 C 60.546875 160.867188 62.011719 154.792969 63.464844 151.875 C 64.917969 149.9375 66.621094 148.722656 68.570312 148.234375 L 70.753906 148.234375 L 75.125 130.75 C 76.578125 125.894531 78.042969 123.464844 79.496094 123.464844 C 81.4375 123.464844 82.640625 123.214844 83.136719 122.730469 C 87.023438 116.421875 92.363281 113.019531 99.160156 112.535156 C 114.707031 111.554688 124.417969 111.320312 128.304688 111.804688 C 134.140625 112.289062 135.109375 112.773438 131.222656 113.257812 C 137.046875 113.742188 144.820312 115.195312 154.535156 117.617188 C 159.875 118.121094 163.277344 120.0625 164.730469 123.464844 Z M 164.730469 123.464844 " fill-opacity="1" fill-rule="evenodd"/><path fill="#f3c563" d="M 79.496094 169.359375 C 78.042969 167.90625 77.300781 164.257812 77.300781 158.433594 C 81.199219 147.265625 83.375 141.183594 83.859375 140.214844 C 84.839844 138.277344 86.53125 136.8125 88.960938 135.84375 C 91.871094 134.875 93.570312 133.90625 94.066406 132.9375 C 95.519531 129.535156 99.652344 126.378906 106.449219 123.464844 C 114.707031 119.566406 121.746094 119.824219 127.574219 124.195312 C 130.492188 126.617188 133.644531 130.257812 137.046875 135.121094 C 138.027344 135.605469 140.699219 136.824219 145.070312 138.761719 C 147.976562 139.742188 149.925781 141.433594 150.894531 143.863281 C 151.863281 145.8125 151.378906 149.214844 149.441406 154.0625 C 147.5 160.378906 146.523438 164.503906 146.523438 166.441406 C 146.523438 170.8125 145.554688 174.9375 143.613281 178.824219 C 142.160156 182.710938 134.871094 184.648438 121.757812 184.648438 C 117.386719 185.132812 113.984375 186.597656 111.550781 189.03125 C 108.644531 192.917969 106.199219 195.09375 104.261719 195.578125 C 100.859375 196.558594 97.953125 196.0625 95.519531 194.125 C 92.613281 191.699219 90.167969 190 88.230469 189.03125 C 83.375 187.082031 81.921875 182.464844 83.859375 175.183594 C 84.34375 173.246094 83.859375 171.785156 82.40625 170.824219 C 80.941406 170.328125 79.972656 169.84375 79.496094 169.359375 Z M 79.496094 169.359375 " fill-opacity="1" fill-rule="evenodd"/><path fill="#ffffff" d="M 118.832031 147.503906 C 125.148438 148.472656 127.574219 150.410156 126.109375 153.328125 C 124.171875 156.730469 121.261719 157.699219 117.367188 156.246094 C 113.972656 155.277344 112.757812 153.566406 113.71875 151.144531 C 114.222656 148.226562 115.921875 147.019531 118.832031 147.503906 Z M 118.832031 147.503906 " fill-opacity="1" fill-rule="evenodd"/><path fill="#ffffff" d="M 124.65625 164.257812 C 127.089844 165.238281 127.574219 166.691406 126.109375 168.628906 C 125.140625 170.566406 123.4375 171.0625 121.007812 170.082031 C 118.582031 169.597656 116.636719 168.382812 115.179688 166.441406 C 113.726562 164.011719 113.726562 162.320312 115.179688 161.339844 C 116.644531 160.371094 119.800781 161.339844 124.65625 164.257812 Z M 124.65625 164.257812 " fill-opacity="1" fill-rule="evenodd"/><path fill="#ffffff" d="M 132.675781 155.515625 C 137.039062 155.03125 139.71875 156.96875 140.6875 161.339844 C 142.140625 165.238281 141.171875 167.90625 137.78125 169.359375 C 135.347656 170.8125 132.921875 170.082031 130.492188 167.175781 C 128.058594 163.289062 126.355469 160.855469 125.386719 159.894531 C 123.449219 156.980469 125.871094 155.515625 132.675781 155.515625 Z M 132.675781 155.515625 " fill-opacity="1" fill-rule="evenodd"/><path fill="#ffffff" d="M 153.800781 151.875 C 156.234375 152.359375 157.203125 153.578125 156.71875 155.523438 C 155.742188 157.464844 154.296875 159.164062 152.347656 160.628906 C 150.410156 162.082031 148.707031 161.84375 147.246094 159.90625 C 145.304688 158.453125 144.328125 156.503906 144.328125 154.070312 C 144.328125 151.144531 147.492188 150.410156 153.800781 151.875 Z M 153.800781 151.875 " fill-opacity="1" fill-rule="evenodd"/><path fill="#ffffff" d="M 143.605469 135.121094 C 147.007812 136.101562 148.945312 138.039062 149.429688 140.949219 C 150.410156 143.863281 149.429688 145.566406 146.511719 146.050781 C 139.71875 148.472656 135.832031 148.234375 134.863281 145.320312 C 133.882812 142.886719 134.378906 140.464844 136.316406 138.039062 C 137.78125 135.597656 140.203125 134.628906 143.605469 135.121094 Z M 143.605469 135.121094 " fill-opacity="1" fill-rule="evenodd"/><path fill="#ffffff" d="M 126.851562 145.320312 C 121.015625 144.351562 118.347656 141.421875 118.832031 136.578125 C 118.832031 133.175781 120.769531 130.257812 124.65625 127.835938 C 128.058594 125.410156 130.492188 125.648438 131.945312 128.554688 C 133.882812 131.957031 134.140625 135.597656 132.675781 139.484375 C 131.222656 143.855469 129.273438 145.804688 126.851562 145.320312 Z M 126.851562 145.320312 " fill-opacity="1" fill-rule="evenodd"/><path fill="#ffffff" d="M 117.375 124.917969 C 118.347656 127.835938 117.859375 130.257812 115.921875 132.207031 C 113.984375 133.660156 111.789062 134.144531 109.367188 133.660156 C 104.996094 131.710938 104.996094 127.347656 109.367188 120.546875 C 110.820312 118.121094 112.28125 117.628906 113.726562 119.09375 C 115.179688 120.0625 116.398438 122 117.375 124.917969 Z M 117.375 124.917969 " fill-opacity="1" fill-rule="evenodd"/><path fill="#ffffff" d="M 107.902344 143.855469 C 111.304688 149.207031 110.582031 152.84375 105.714844 154.78125 C 101.355469 156.238281 98.4375 155.269531 96.972656 151.867188 C 96.003906 148.957031 97.210938 146.289062 100.613281 143.855469 C 104.015625 141.421875 106.449219 141.421875 107.902344 143.855469 Z M 107.902344 143.855469 " fill-opacity="1" fill-rule="evenodd"/><path fill="#ffffff" d="M 107.902344 159.15625 C 110.820312 160.132812 112.027344 162.070312 111.542969 164.980469 C 111.542969 165.464844 110.324219 167.898438 107.902344 172.257812 C 107.417969 174.207031 105.953125 174.453125 103.53125 172.988281 C 101.097656 171.050781 99.644531 168.867188 99.160156 166.433594 C 98.675781 164.496094 99.40625 162.546875 101.355469 160.609375 C 103.777344 159.15625 105.953125 158.667969 107.902344 159.15625 Z M 107.902344 159.15625 " fill-opacity="1" fill-rule="evenodd"/><path fill="#ffffff" d="M 117.375 173 C 119.808594 173.484375 121.511719 175.433594 122.480469 178.824219 C 122.964844 182.226562 122.480469 184.402344 121.027344 185.382812 C 119.085938 186.351562 116.902344 186.351562 114.46875 185.382812 C 112.035156 184.402344 110.828125 182.949219 110.828125 181.011719 C 109.839844 174.699219 112.027344 172.03125 117.375 173 Z M 117.375 173 " fill-opacity="1" fill-rule="evenodd"/><path fill="#ffffff" d="M 135.585938 175.917969 C 137.53125 177.371094 138.738281 179.554688 139.234375 182.472656 C 139.234375 185.875 137.53125 187.824219 134.140625 188.300781 C 130.738281 188.785156 128.789062 188.300781 128.304688 186.84375 C 128.304688 184.414062 128.066406 182.238281 127.574219 180.289062 C 127.089844 177.855469 127.574219 176.164062 129.027344 175.183594 C 130.492188 174.214844 132.675781 174.464844 135.585938 175.917969 Z M 135.585938 175.917969 " fill-opacity="1" fill-rule="evenodd"/><path fill="#ffffff" d="M 148.707031 173 C 151.617188 173.484375 153.078125 174.9375 153.078125 177.371094 C 153.078125 179.804688 152.101562 181.742188 150.164062 183.195312 C 148.707031 184.175781 147.007812 183.925781 145.070312 182.472656 C 143.613281 181.019531 142.636719 179.320312 142.152344 177.371094 C 141.171875 173.484375 143.367188 172.03125 148.707031 173 Z M 148.707031 173 " fill-opacity="1" fill-rule="evenodd"/><path fill="#ffffff" d="M 96.972656 181.011719 C 96.972656 187.8125 94.789062 189.03125 90.417969 184.648438 C 88.46875 182.226562 88.960938 180.289062 91.859375 178.824219 C 95.273438 177.371094 96.972656 178.101562 96.972656 181.011719 Z M 96.972656 181.011719 " fill-opacity="1" fill-rule="evenodd"/><path fill="#ffffff" d="M 105.714844 186.113281 C 108.148438 186.113281 109.367188 188.300781 109.367188 192.679688 C 109.367188 197.535156 106.933594 198.019531 102.078125 194.125 C 100.136719 192.679688 99.652344 190.730469 100.621094 188.300781 C 102.078125 186.359375 103.777344 185.628906 105.714844 186.113281 Z M 105.714844 186.113281 " fill-opacity="1" fill-rule="evenodd"/><path fill="#ffffff" d="M 90.425781 156.246094 C 91.394531 157.214844 91.871094 158.679688 91.871094 160.617188 C 91.386719 163.039062 90.425781 164.503906 88.960938 164.988281 C 87.015625 165.472656 85.796875 164.988281 85.3125 163.535156 C 85.3125 161.597656 85.074219 160.132812 84.582031 159.164062 C 84.097656 158.195312 84.828125 157.226562 86.777344 156.257812 C 88.726562 155.277344 89.929688 155.277344 90.425781 156.246094 Z M 90.425781 156.246094 " fill-opacity="1" fill-rule="evenodd"/><path fill="#ffffff" d="M 93.324219 140.214844 C 93.324219 143.125 91.871094 144.585938 88.960938 144.585938 C 87.015625 144.585938 85.558594 143.617188 84.582031 141.679688 C 83.613281 139.742188 83.613281 138.039062 84.582031 136.578125 C 85.558594 135.121094 87.261719 134.628906 89.683594 135.121094 C 92.117188 136.09375 93.324219 137.78125 93.324219 140.214844 Z M 93.324219 140.214844 " fill-opacity="1" fill-rule="evenodd"/><path fill="#ffffff" d="M 99.160156 124.917969 C 101.59375 129.289062 100.136719 130.988281 94.789062 130.019531 C 91.871094 129.050781 91.632812 127.597656 94.066406 125.660156 C 96.488281 123.699219 98.191406 123.464844 99.160156 124.917969 Z M 99.160156 124.917969 " fill-opacity="1" fill-rule="evenodd"/><path fill="#ffffff" d="M 99.890625 116.90625 C 101.34375 116.421875 102.3125 116.90625 102.796875 118.359375 C 102.796875 119.8125 101.828125 120.546875 99.890625 120.546875 C 97.941406 121.03125 97.210938 120.546875 97.707031 119.09375 C 97.707031 118.121094 98.4375 117.390625 99.890625 116.90625 Z M 99.890625 116.90625 " fill-opacity="1" fill-rule="evenodd"/><path fill="#ffffff" d="M 76.578125 175.917969 C 77.550781 181.257812 77.300781 183.9375 75.847656 183.9375 C 74.867188 183.9375 73.910156 182.484375 72.929688 179.566406 C 72.445312 177.628906 72.691406 175.925781 73.652344 174.472656 C 75.117188 173 76.085938 173.484375 76.578125 175.917969 Z M 76.578125 175.917969 " fill-opacity="1" fill-rule="evenodd"/><path fill="#ffffff" d="M 96.242188 199.226562 C 99.644531 200.679688 100.851562 202.382812 99.890625 204.339844 C 98.910156 205.792969 97.210938 206.277344 94.789062 205.792969 C 92.847656 205.308594 92.363281 203.855469 93.332031 201.421875 C 93.808594 198.980469 94.789062 198.257812 96.242188 199.226562 Z M 96.242188 199.226562 " fill-opacity="1" fill-rule="evenodd"/><path fill="#f5a510" d="M 161.8125 129.289062 C 165.214844 132.691406 165.9375 135.359375 164 137.296875 C 162.058594 139.730469 159.875 138.753906 157.429688 134.390625 C 155.007812 130.496094 154.523438 128.070312 155.988281 127.113281 C 157.441406 125.648438 159.390625 126.371094 161.8125 129.289062 Z M 161.8125 129.289062 " fill-opacity="1" fill-rule="evenodd"/><path fill="#f5a510" d="M 168.371094 145.320312 C 170.316406 148.226562 170.070312 150.90625 167.648438 153.328125 C 165.226562 156.246094 163.523438 156.492188 162.542969 154.0625 C 161.574219 152.113281 161.8125 149.691406 163.277344 146.773438 C 165.226562 144.351562 166.917969 143.855469 168.371094 145.320312 Z M 168.371094 145.320312 " fill-opacity="1" fill-rule="evenodd"/><path fill="#f5a510" d="M 169.824219 173 C 169.339844 176.886719 168.371094 180.042969 166.917969 182.472656 C 164.976562 184.414062 163.277344 184.414062 161.8125 182.472656 C 160.84375 180.535156 161.8125 177.855469 164.71875 174.464844 C 168.121094 171.0625 169.824219 170.566406 169.824219 173 Z M 169.824219 173 " fill-opacity="1" fill-rule="evenodd"/><path fill="#f5a510" d="M 139.234375 191.9375 C 144.574219 193.390625 146.039062 196.308594 143.605469 200.679688 C 141.667969 204.578125 137.78125 207.246094 131.945312 208.699219 C 127.574219 210.15625 124.65625 209.917969 123.210938 207.980469 C 122.234375 206.523438 121.996094 203.855469 122.480469 199.957031 C 123.449219 192.671875 129.027344 190 139.234375 191.9375 Z M 139.234375 191.9375 " fill-opacity="1" fill-rule="evenodd"/><path fill="#f5a510" d="M 155.253906 198.496094 C 162.058594 198.011719 160.113281 200.679688 149.429688 206.515625 C 147.492188 206.515625 147.492188 205.308594 149.429688 202.875 C 151.378906 199.957031 153.316406 198.496094 155.253906 198.496094 Z M 155.253906 198.496094 " fill-opacity="1" fill-rule="evenodd"/><path fill="#f5a510" d="M 84.582031 209.433594 C 85.558594 212.835938 84.828125 214.773438 82.394531 215.257812 C 79.488281 215.257812 77.292969 214.042969 75.839844 211.617188 C 74.382812 209.195312 75.105469 207.257812 78.023438 205.792969 C 80.941406 204.328125 83.136719 205.546875 84.582031 209.433594 Z M 84.582031 209.433594 " fill-opacity="1" fill-rule="evenodd"/><path fill="#f5a510" d="M 70.746094 155.515625 C 70.261719 156.492188 69.289062 160.132812 67.828125 166.441406 C 67.34375 168.382812 65.886719 168.144531 63.457031 165.710938 C 61.023438 163.277344 62 160.371094 66.363281 156.96875 C 70.746094 152.609375 72.207031 152.113281 70.746094 155.515625 Z M 70.746094 155.515625 " fill-opacity="1" fill-rule="evenodd"/><path fill="#f7b61c" d="M 145.789062 218.175781 C 152.59375 221.082031 152.59375 223.753906 145.789062 226.195312 C 138.988281 229.113281 135.101562 228.867188 134.140625 225.464844 C 133.644531 223.039062 134.863281 221.09375 137.78125 219.628906 C 140.203125 217.679688 142.875 217.195312 145.789062 218.175781 Z M 145.789062 218.175781 " fill-opacity="1" fill-rule="evenodd"/><path fill="#f7b61c" d="M 113.003906 230.558594 C 116.40625 232.496094 115.429688 234.453125 110.085938 236.390625 C 104.738281 237.835938 101.355469 237.359375 99.890625 234.9375 C 98.910156 232.019531 99.652344 229.835938 102.078125 228.382812 C 104.996094 226.90625 108.632812 227.648438 113.003906 230.558594 Z M 113.003906 230.558594 " fill-opacity="1" fill-rule="evenodd"/><path fill="#f7b61c" d="M 127.574219 233.464844 C 131.460938 232.980469 132.921875 234.1875 131.945312 237.105469 C 130.976562 240.503906 128.789062 241.722656 125.386719 240.742188 C 122.953125 239.765625 122.234375 238.320312 123.203125 236.382812 C 124.171875 234.445312 125.636719 233.464844 127.574219 233.464844 Z M 127.574219 233.464844 " fill-opacity="1" fill-rule="evenodd"/><path fill="#f7b61c" d="M 190.226562 175.917969 C 189.742188 180.773438 188.527344 183.9375 186.585938 185.390625 C 185.144531 186.84375 183.917969 186.359375 182.949219 183.9375 C 182.464844 181.503906 183.679688 178.835938 186.585938 175.917969 C 189.019531 172.515625 190.226562 172.515625 190.226562 175.917969 Z M 190.226562 175.917969 " fill-opacity="1" fill-rule="evenodd"/><path fill="#f7b61c" d="M 188.042969 138.039062 C 190.957031 143.378906 190.722656 147.515625 187.320312 150.410156 C 183.917969 152.84375 181.246094 152.113281 179.296875 148.226562 C 177.359375 144.824219 178.09375 141.667969 181.492188 138.753906 C 184.886719 135.359375 187.070312 135.121094 188.042969 138.039062 Z M 188.042969 138.039062 " fill-opacity="1" fill-rule="evenodd"/><path fill="#f7b61c" d="M 179.296875 111.804688 C 182.214844 112.773438 183.195312 115.925781 182.214844 121.277344 C 181.238281 126.132812 179.050781 127.597656 175.648438 125.648438 C 172.742188 124.195312 172.007812 121.277344 173.464844 116.90625 C 174.917969 112.535156 176.875 110.835938 179.296875 111.804688 Z M 179.296875 111.804688 " fill-opacity="1" fill-rule="evenodd"/><path fill="#f7b61c" d="M 189.503906 124.195312 C 193.390625 123.214844 195.824219 124.917969 196.785156 129.296875 C 197.277344 133.667969 195.082031 135.371094 190.226562 134.402344 C 185.867188 133.917969 184.164062 132.214844 185.132812 129.296875 C 185.617188 126.371094 187.070312 124.679688 189.503906 124.195312 Z M 189.503906 124.195312 " fill-opacity="1" fill-rule="evenodd"/><path fill="#f7b61c" d="M 204.796875 188.300781 C 204.796875 195.578125 202.371094 200.441406 197.515625 202.875 C 192.660156 205.792969 190.226562 204.578125 190.226562 199.226562 C 190.722656 195.339844 193.390625 191.699219 198.246094 188.308594 C 203.105469 185.390625 205.289062 185.390625 204.796875 188.300781 Z M 204.796875 188.300781 " fill-opacity="1" fill-rule="evenodd"/><path fill="#f7b61c" d="M 168.371094 211.617188 C 176.628906 211.617188 179.296875 214.535156 176.390625 220.359375 C 172.988281 226.195312 168.617188 228.617188 163.277344 227.648438 C 158.410156 227.164062 156.957031 224.246094 158.894531 218.898438 C 160.84375 214.042969 164 211.617188 168.371094 211.617188 Z M 168.371094 211.617188 " fill-opacity="1" fill-rule="evenodd"/><path fill="#f7b61c" d="M 75.117188 223.988281 C 77.550781 228.363281 77.300781 230.546875 74.382812 230.546875 C 70.980469 230.546875 68.3125 229.101562 66.363281 226.1875 C 64.910156 223.753906 65.632812 222.050781 68.558594 221.074219 C 70.992188 220.113281 73.167969 221.082031 75.117188 223.988281 Z M 75.117188 223.988281 " fill-opacity="1" fill-rule="evenodd"/><path fill="#f5a510" d="M 162.542969 255.320312 C 171.289062 256.773438 172.019531 260.421875 164.730469 266.25 C 157.441406 272.074219 151.617188 273.050781 147.246094 269.164062 C 142.875 265.753906 143.359375 262.363281 148.699219 258.960938 C 153.070312 256.050781 157.6875 254.84375 162.542969 255.320312 Z M 162.542969 255.320312 " fill-opacity="1" fill-rule="evenodd"/><path fill="#f5a510" d="M 225.207031 223.988281 C 224.714844 230.792969 222.054688 236.382812 217.175781 240.742188 C 212.332031 245.113281 209.652344 244.875 209.167969 240.019531 C 208.683594 235.648438 211.351562 231.042969 217.175781 226.1875 C 223.011719 220.835938 225.691406 220.113281 225.207031 223.988281 Z M 225.207031 223.988281 " fill-opacity="1" fill-rule="evenodd"/><path fill="#f5a510" d="M 248.507812 227.648438 C 252.882812 230.074219 251.425781 234.691406 244.148438 241.476562 C 237.34375 247.804688 232.972656 248.527344 231.035156 243.671875 C 229.09375 238.816406 230.550781 234.445312 235.394531 230.558594 C 239.777344 226.1875 244.148438 225.214844 248.507812 227.648438 Z M 248.507812 227.648438 " fill-opacity="1" fill-rule="evenodd"/><path fill="#f5a510" d="M 257.253906 148.96875 C 257.738281 158.195312 255.3125 164.257812 249.972656 167.175781 C 245.128906 169.609375 242.210938 166.691406 241.230469 158.433594 C 240.25 150.175781 242.683594 144.835938 248.507812 142.402344 C 253.851562 139.976562 256.769531 142.164062 257.253906 148.96875 Z M 257.253906 148.96875 " fill-opacity="1" fill-rule="evenodd"/><path fill="#f5a510" d="M 252.160156 178.835938 C 251.191406 183.691406 249.488281 187.824219 247.066406 191.214844 C 244.632812 194.617188 242.210938 194.125 239.777344 189.761719 C 237.839844 185.390625 239.539062 181.753906 244.878906 178.835938 C 250.210938 175.433594 252.644531 175.433594 252.160156 178.835938 Z M 252.160156 178.835938 " fill-opacity="1" fill-rule="evenodd"/><path fill="#f5a510" d="M 107.902344 278.640625 C 113.726562 281.0625 115.429688 284.703125 113.003906 289.566406 C 110.085938 294.414062 105.714844 296.113281 99.890625 294.671875 C 94.066406 293.21875 92.601562 289.566406 95.519531 283.742188 C 98.4375 277.90625 102.5625 276.207031 107.902344 278.640625 Z M 107.902344 278.640625 " fill-opacity="1" fill-rule="evenodd"/><path fill="#f5a510" d="M 62.722656 257.507812 C 64.671875 260.90625 64.917969 263.332031 63.457031 264.785156 C 62 266.734375 59.816406 266.496094 56.898438 264.0625 C 54.464844 261.628906 54.226562 259.207031 56.175781 256.785156 C 58.601562 253.867188 60.785156 254.105469 62.722656 257.507812 Z M 62.722656 257.507812 " fill-opacity="1" fill-rule="evenodd"/><path fill="#f5a510" d="M 131.945312 283 C 136.800781 283 138.265625 285.679688 136.316406 291.03125 C 134.378906 295.878906 130.976562 297.824219 126.109375 296.855469 C 122.222656 295.402344 121.261719 292.734375 123.203125 288.835938 C 125.636719 284.949219 128.550781 283 131.945312 283 Z M 131.945312 283 " fill-opacity="1" fill-rule="evenodd"/><path fill="#f5a510" d="M 202.621094 275.722656 C 207.960938 276.207031 208.9375 278.15625 205.535156 281.546875 C 202.136719 284.949219 198.496094 286.402344 194.609375 285.917969 C 190.722656 285.433594 190.238281 283.484375 193.15625 280.09375 C 195.566406 276.703125 198.734375 275.238281 202.621094 275.722656 Z M 202.621094 275.722656 " fill-opacity="1" fill-rule="evenodd"/><path fill="#f5a510" d="M 266.726562 185.390625 C 267.707031 192.183594 267.222656 196.804688 265.28125 199.226562 C 263.828125 202.144531 261.871094 200.929688 259.4375 195.585938 C 257.015625 190.742188 257.5 187.09375 260.902344 184.660156 C 263.820312 181.742188 265.769531 181.988281 266.726562 185.390625 Z M 266.726562 185.390625 " fill-opacity="1" fill-rule="evenodd"/><path fill="#f5a510" d="M 231.035156 100.152344 C 238.3125 106.957031 239.777344 111.8125 235.394531 114.730469 C 230.550781 117.636719 225.929688 116.667969 221.558594 111.8125 C 218.15625 107.925781 218.15625 104.289062 221.558594 100.886719 C 224.960938 97.472656 228.117188 97.234375 231.035156 100.152344 Z M 231.035156 100.152344 " fill-opacity="1" fill-rule="evenodd"/><path fill="#f98b0e" d="M 244.871094 285.917969 C 252.148438 287.867188 251.675781 291.269531 243.425781 296.113281 C 235.15625 300.96875 230.054688 301.691406 228.117188 298.308594 C 226.175781 295.394531 227.148438 292.238281 231.035156 288.835938 C 234.921875 285.433594 239.527344 284.464844 244.871094 285.917969 Z M 244.871094 285.917969 " fill-opacity="1" fill-rule="evenodd"/><path fill="#f98b0e" d="M 208.445312 304.855469 C 218.15625 305.339844 221.558594 308.992188 218.640625 315.785156 C 215.722656 323.0625 210.382812 325.496094 202.621094 323.0625 C 195.816406 321.125 193.628906 317.484375 196.0625 312.144531 C 198.980469 306.804688 203.105469 304.371094 208.445312 304.855469 Z M 208.445312 304.855469 " fill-opacity="1" fill-rule="evenodd"/><path fill="#f98b0e" d="M 72.207031 287.382812 C 75.601562 289.332031 76.09375 291.277344 73.652344 293.21875 C 71.230469 294.671875 68.804688 294.1875 66.375 291.761719 C 63.941406 289.824219 63.703125 288.125 65.640625 286.660156 C 67.589844 285.679688 69.777344 285.917969 72.207031 287.382812 Z M 72.207031 287.382812 " fill-opacity="1" fill-rule="evenodd"/><path fill="#f98b0e" d="M 279.109375 285.917969 C 291.265625 288.835938 287.140625 293.691406 266.726562 300.496094 C 264.789062 299.515625 265.757812 296.609375 269.644531 291.753906 C 273.53125 287.382812 276.6875 285.433594 279.109375 285.917969 Z M 279.109375 285.917969 " fill-opacity="1" fill-rule="evenodd"/><path fill="#eb7805" d="M 314.8125 276.453125 C 316.761719 281.792969 315.316406 286.402344 310.453125 290.289062 C 305.59375 294.175781 302.191406 294.660156 300.253906 291.742188 C 298.316406 289.320312 300.015625 284.941406 305.359375 278.628906 C 310.203125 272.816406 313.359375 272.082031 314.8125 276.453125 Z M 314.8125 276.453125 " fill-opacity="1" fill-rule="evenodd"/><path fill="#eb7805" d="M 337.410156 143.855469 C 338.855469 147.742188 338.617188 150.898438 336.671875 153.328125 C 335.226562 155.277344 333.773438 154.78125 332.308594 151.875 C 330.863281 148.96875 331.101562 145.8125 333.03125 142.402344 C 334.496094 139 335.9375 139.484375 337.410156 143.855469 Z M 337.410156 143.855469 " fill-opacity="1" fill-rule="evenodd"/><path fill="#eb7805" d="M 343.226562 194.855469 C 347.597656 198.742188 348.578125 204.566406 346.144531 212.339844 C 344.207031 220.113281 341.535156 221.816406 338.132812 217.441406 C 335.214844 212.597656 334.730469 207 336.671875 200.691406 C 338.132812 194.371094 340.308594 192.421875 343.226562 194.855469 Z M 343.226562 194.855469 " fill-opacity="1" fill-rule="evenodd"/><path fill="#eb7805" d="M 336.660156 122 C 342.496094 127.824219 341.527344 130.742188 333.761719 130.742188 C 329.867188 130.742188 328.894531 128.804688 330.84375 124.90625 C 332.296875 120.546875 334.246094 119.566406 336.660156 122 Z M 336.660156 122 " fill-opacity="1" fill-rule="evenodd"/><path fill="#eb7805" d="M 330.121094 256.785156 C 331.566406 259.207031 330.84375 262.363281 327.925781 266.257812 C 325.496094 269.660156 323.308594 270.144531 321.359375 267.710938 C 319.429688 264.785156 319.917969 261.144531 322.824219 256.785156 C 325.742188 252.898438 328.175781 252.898438 330.121094 256.785156 Z M 330.121094 256.785156 " fill-opacity="1" fill-rule="evenodd"/><path fill="#eb7805" d="M 282.757812 317.25 C 289.5625 318.226562 290.285156 321.371094 284.945312 326.714844 C 279.109375 331.578125 273.769531 333.03125 268.921875 331.085938 C 265.027344 329.628906 265.519531 326.714844 270.367188 322.339844 C 274.746094 318.464844 278.871094 316.765625 282.757812 317.25 Z M 282.757812 317.25 " fill-opacity="1" fill-rule="evenodd"/><path fill="#eb7805" d="M 182.949219 334.742188 C 188.289062 335.710938 188.050781 338.628906 182.226562 343.476562 C 176.875 347.847656 171.78125 348.339844 166.925781 344.9375 C 162.554688 341.539062 162.792969 338.867188 167.648438 336.910156 C 172.019531 334.496094 177.113281 333.765625 182.949219 334.742188 Z M 182.949219 334.742188 " fill-opacity="1" fill-rule="evenodd"/><path fill="#eb7805" d="M 67.105469 304.855469 C 70.992188 310.207031 71.230469 313.125 67.828125 313.609375 C 63.941406 314.589844 61.023438 313.125 59.085938 309.238281 C 57.144531 305.835938 57.382812 303.660156 59.816406 302.679688 C 62.238281 301.21875 64.671875 301.949219 67.105469 304.855469 Z M 67.105469 304.855469 " fill-opacity="1" fill-rule="evenodd"/><path fill="#f98b0e" d="M 179.296875 92.863281 C 189.503906 98.691406 189.988281 101.113281 180.753906 100.144531 C 171.039062 98.691406 166.183594 96.257812 166.183594 92.863281 C 166.183594 89.949219 167.636719 88.742188 170.554688 89.214844 C 173.472656 89.226562 176.390625 90.433594 179.296875 92.863281 Z M 179.296875 92.863281 " fill-opacity="1" fill-rule="evenodd"/><path fill="#f98b0e" d="M 197.515625 108.164062 C 200.433594 111.082031 199.949219 113.515625 196.0625 115.453125 C 192.175781 116.90625 189.742188 116.183594 188.78125 113.265625 C 187.804688 110.347656 188.535156 108.164062 190.96875 106.699219 C 192.898438 104.761719 195.082031 105.257812 197.515625 108.164062 Z M 197.515625 108.164062 " fill-opacity="1" fill-rule="evenodd"/><path fill="#f98b0e" d="M 204.074219 120.546875 C 206.496094 122.492188 207.226562 124.433594 206.257812 126.371094 C 205.773438 128.308594 204.074219 129.050781 201.15625 128.554688 C 198.734375 128.070312 198.238281 126.371094 199.703125 123.464844 C 201.15625 120.546875 202.621094 119.566406 204.074219 120.546875 Z M 204.074219 120.546875 " fill-opacity="1" fill-rule="evenodd"/><path fill="#f98b0e" d="M 220.835938 127.835938 C 221.816406 132.207031 221.320312 134.636719 219.382812 135.121094 C 217.433594 135.605469 215.488281 134.390625 213.546875 131.472656 C 212.09375 129.050781 212.09375 126.855469 213.546875 124.917969 C 214.03125 123.949219 214.765625 123.214844 215.734375 122.730469 L 217.929688 122.730469 C 219.375 123.214844 220.351562 124.917969 220.835938 127.835938 Z M 220.835938 127.835938 " fill-opacity="1" fill-rule="evenodd"/><path fill="#f98b0e" d="M 217.917969 143.855469 C 219.859375 147.742188 218.898438 150.410156 215 151.867188 C 211.601562 153.320312 209.898438 152.101562 209.898438 148.226562 C 209.898438 144.824219 210.878906 142.402344 212.816406 140.9375 C 214.753906 139.980469 216.457031 140.949219 217.917969 143.855469 Z M 217.917969 143.855469 " fill-opacity="1" fill-rule="evenodd"/><path fill="#f98b0e" d="M 202.621094 152.609375 C 205.535156 156 206.257812 159.640625 204.804688 163.535156 C 203.359375 166.925781 200.917969 167.421875 197.527344 164.988281 C 194.125 162.554688 193.640625 159.402344 196.070312 155.515625 C 198.496094 152.113281 200.671875 151.144531 202.621094 152.609375 Z M 202.621094 152.609375 " fill-opacity="1" fill-rule="evenodd"/><path fill="#f98b0e" d="M 219.375 159.894531 C 221.804688 163.289062 221.804688 166.691406 219.375 170.09375 C 216.941406 173.007812 214.515625 172.773438 212.085938 169.371094 C 209.175781 165.96875 209.175781 163.050781 212.085938 160.628906 C 215 157.699219 217.425781 157.453125 219.375 159.894531 Z M 219.375 159.894531 " fill-opacity="1" fill-rule="evenodd"/><path fill="#f98b0e" d="M 233.941406 173 C 233.457031 179.804688 231.519531 184.164062 228.117188 186.113281 C 224.714844 188.0625 222.777344 186.597656 222.289062 181.753906 C 221.804688 177.855469 223.507812 174.710938 227.394531 172.277344 C 231.753906 169.359375 233.941406 169.597656 233.941406 173 Z M 233.941406 173 " fill-opacity="1" fill-rule="evenodd"/><path fill="#f98b0e" d="M 217.175781 192.671875 C 213.777344 203.84375 210.867188 208.207031 208.433594 205.785156 C 206.496094 203.84375 206.992188 200.671875 209.886719 196.308594 C 212.816406 191.9375 215.238281 190.730469 217.175781 192.671875 Z M 217.175781 192.671875 " fill-opacity="1" fill-rule="evenodd"/><path fill="#f98b0e" d="M 194.597656 216.710938 C 195.082031 220.597656 194.359375 223.515625 192.414062 225.453125 C 189.980469 227.886719 187.308594 227.886719 184.390625 225.453125 C 180.988281 223.515625 181.722656 220.351562 186.578125 215.980469 C 191.445312 212.09375 194.113281 212.339844 194.597656 216.710938 Z M 194.597656 216.710938 " fill-opacity="1" fill-rule="evenodd"/><path fill="#f98b0e" d="M 169.101562 235.648438 C 177.351562 235.164062 180.269531 236.867188 177.84375 240.753906 C 174.925781 244.15625 171.039062 245.867188 166.183594 245.867188 C 161.8125 245.371094 160.359375 243.671875 161.8125 240.753906 C 163.277344 237.835938 165.699219 236.132812 169.101562 235.648438 Z M 169.101562 235.648438 " fill-opacity="1" fill-rule="evenodd"/><path fill="#f98b0e" d="M 135.585938 245.855469 C 141.417969 247.308594 141.171875 249.496094 134.863281 252.402344 C 128.550781 255.804688 123.933594 256.535156 121.015625 254.597656 C 118.109375 252.660156 118.59375 250.464844 122.46875 248.042969 C 125.871094 245.125 130.242188 244.390625 135.585938 245.855469 Z M 135.585938 245.855469 " fill-opacity="1" fill-rule="evenodd"/><path fill="#f98b0e" d="M 115.921875 250.960938 C 118.832031 251.929688 118.59375 253.628906 115.191406 256.050781 C 111.789062 257.992188 108.632812 257.992188 105.714844 256.050781 C 102.3125 254.113281 102.078125 252.414062 104.996094 250.960938 C 107.417969 249.980469 111.058594 249.980469 115.921875 250.960938 Z M 115.921875 250.960938 " fill-opacity="1" fill-rule="evenodd"/><path fill="#f98b0e" d="M 81.671875 242.9375 C 82.640625 245.867188 82.394531 248.050781 80.941406 249.503906 C 79.003906 251.445312 77.054688 251.207031 75.117188 248.773438 C 73.167969 246.835938 73.652344 244.886719 76.570312 242.9375 C 79.003906 240.992188 80.703125 240.992188 81.671875 242.9375 Z M 81.671875 242.9375 " fill-opacity="1" fill-rule="evenodd"/><path fill="#f98b0e" d="M 53.257812 200.679688 C 57.144531 204.578125 58.363281 207.730469 56.910156 210.15625 C 54.96875 213.070312 53.023438 213.070312 51.082031 210.15625 C 49.628906 208.214844 49.382812 205.792969 50.359375 202.875 C 50.835938 199.957031 51.796875 199.226562 53.257812 200.679688 Z M 53.257812 200.679688 " fill-opacity="1" fill-rule="evenodd"/><path fill="#f7700b" d="M 269.644531 216.710938 C 269.644531 224.484375 267.707031 229.101562 263.820312 230.546875 C 259.4375 232 257.738281 229.578125 258.707031 223.269531 C 259.191406 217.433594 261.140625 213.792969 264.542969 212.339844 C 267.457031 210.390625 269.160156 211.855469 269.644531 216.710938 Z M 269.644531 216.710938 " fill-opacity="1" fill-rule="evenodd"/><path fill="#f7700b" d="M 260.171875 238.566406 C 266.972656 239.050781 267.945312 241.476562 263.085938 245.855469 C 258.230469 250.703125 254.828125 251.917969 252.890625 249.496094 C 251.910156 247.558594 252.160156 245.125 253.613281 242.207031 C 255.550781 239.289062 257.738281 238.082031 260.171875 238.566406 Z M 260.171875 238.566406 " fill-opacity="1" fill-rule="evenodd"/><path fill="#f7700b" d="M 235.394531 257.507812 C 237.828125 258.960938 237.332031 261.144531 233.941406 264.0625 C 230.550781 267.464844 228.117188 268.195312 226.664062 266.257812 C 224.722656 264.308594 224.960938 262.125 227.394531 259.691406 C 229.816406 256.785156 232.488281 256.050781 235.394531 257.507812 Z M 235.394531 257.507812 " fill-opacity="1" fill-rule="evenodd"/><path fill="#f7700b" d="M 215.722656 260.421875 C 219.621094 260.90625 220.589844 263.332031 218.640625 267.710938 C 216.21875 272.074219 212.816406 273.535156 208.445312 272.074219 C 204.558594 270.621094 203.835938 268.433594 206.257812 265.515625 C 208.691406 262.125 211.835938 260.421875 215.722656 260.421875 Z M 215.722656 260.421875 " fill-opacity="1" fill-rule="evenodd"/><path fill="#f7700b" d="M 158.894531 291.03125 C 164.246094 292.476562 166.917969 293.703125 166.917969 294.671875 L 164.71875 298.308594 C 162.78125 300.734375 161.328125 301.949219 160.347656 301.949219 C 158.410156 302.433594 155.492188 301.703125 151.605469 299.753906 C 147.234375 297.816406 146.253906 295.628906 148.699219 293.207031 C 151.132812 290.773438 154.535156 290.050781 158.894531 291.03125 Z M 158.894531 291.03125 " fill-opacity="1" fill-rule="evenodd"/><path fill="#f7700b" d="M 174.207031 282.277344 C 178.566406 282.765625 180.269531 284.21875 179.296875 286.652344 C 178.328125 289.074219 175.90625 289.804688 172.019531 288.835938 C 168.628906 287.867188 167.410156 286.402344 168.371094 284.464844 C 169.347656 282.042969 171.289062 281.300781 174.207031 282.277344 Z M 174.207031 282.277344 " fill-opacity="1" fill-rule="evenodd"/><path fill="#f7700b" d="M 274.015625 155.515625 C 276.449219 161.835938 276.210938 166.441406 273.292969 169.359375 C 270.375 172.269531 267.953125 171.785156 266.015625 167.90625 C 264.5625 164.503906 265.292969 160.867188 268.199219 156.980469 C 271.109375 153.09375 273.046875 152.609375 274.015625 155.515625 Z M 274.015625 155.515625 " fill-opacity="1" fill-rule="evenodd"/><path fill="#f7700b" d="M 252.160156 102.339844 C 256.054688 107.195312 257.015625 110.597656 255.078125 112.535156 C 252.652344 114.96875 249.972656 114.484375 247.066406 111.082031 C 244.148438 107.679688 243.664062 104.523438 245.613281 101.605469 C 247.550781 98.691406 249.726562 98.925781 252.160156 102.339844 Z M 252.160156 102.339844 " fill-opacity="1" fill-rule="evenodd"/><path fill="#d66915" d="M 248.507812 311.421875 C 253.367188 316.269531 252.40625 319.671875 245.601562 321.609375 C 238.796875 323.0625 234.425781 322.589844 232.488281 320.167969 C 230.550781 317.734375 231.753906 314.824219 236.128906 311.421875 C 240.992188 307.535156 245.128906 307.535156 248.507812 311.421875 Z M 248.507812 311.421875 " fill-opacity="1" fill-rule="evenodd"/><path fill="#d66915" d="M 219.375 325.992188 C 223.269531 330.847656 220.828125 332.796875 212.085938 331.824219 C 210.640625 330.847656 211.113281 328.910156 213.539062 325.992188 C 215.972656 323.558594 217.917969 323.558594 219.375 325.992188 Z M 219.375 325.992188 " fill-opacity="1" fill-rule="evenodd"/><path fill="#d66915" d="M 173.472656 318.710938 C 179.792969 322.113281 180.753906 324.773438 176.390625 326.722656 C 172.503906 328.175781 168.617188 327.9375 164.730469 326 C 161.339844 325.023438 161.089844 322.847656 164.007812 319.445312 C 166.429688 316.527344 169.585938 316.28125 173.472656 318.710938 Z M 173.472656 318.710938 " fill-opacity="1" fill-rule="evenodd"/><path fill="#d66915" d="M 285.675781 267.710938 C 291.988281 268.195312 293.925781 270.621094 291.5 274.992188 C 289.5625 279.835938 286.160156 281.300781 281.304688 279.351562 C 277.410156 277.898438 276.449219 275.464844 278.386719 272.074219 C 279.839844 268.679688 282.265625 267.226562 285.675781 267.710938 Z M 285.675781 267.710938 " fill-opacity="1" fill-rule="evenodd"/><path fill="#d66915" d="M 325.742188 218.898438 C 325.742188 226.1875 324.289062 230.558594 321.371094 232.011719 C 318.453125 233.464844 316.277344 232.011719 314.8125 227.648438 C 314.328125 224.246094 316.039062 221.320312 319.925781 218.898438 C 323.804688 215.980469 325.742188 215.980469 325.742188 218.898438 Z M 325.742188 218.898438 " fill-opacity="1" fill-rule="evenodd"/><path fill="#d66915" d="M 325.019531 170.824219 C 325.503906 178.101562 324.535156 181.988281 322.101562 182.472656 C 319.195312 182.472656 317 180.289062 315.554688 175.917969 C 314.089844 172.03125 315.316406 169.359375 319.195312 167.90625 C 323.070312 166.453125 325.019531 167.421875 325.019531 170.824219 Z M 325.019531 170.824219 " fill-opacity="1" fill-rule="evenodd"/><path fill="#d66915" d="M 314.8125 116.183594 C 317.730469 122.976562 317.246094 126.617188 313.367188 127.113281 C 309.964844 127.597656 307.789062 125.164062 306.8125 119.824219 C 306.328125 115.925781 307.304688 113.503906 309.730469 112.535156 C 312.140625 112.050781 313.84375 113.265625 314.8125 116.183594 Z M 314.8125 116.183594 " fill-opacity="1" fill-rule="evenodd"/><path fill="#d66915" d="M 312.636719 136.578125 C 315.050781 143.855469 314.566406 147.503906 311.183594 147.503906 C 307.78125 147.019531 305.59375 144.585938 304.625 140.214844 C 304.132812 136.328125 305.109375 133.894531 307.542969 132.925781 C 309.957031 131.957031 311.65625 133.175781 312.636719 136.578125 Z M 312.636719 136.578125 " fill-opacity="1" fill-rule="evenodd"/><path fill="#ffffff" d="M 126.109375 199.957031 C 130.480469 204.328125 131.460938 207.246094 129.027344 208.699219 C 127.089844 210.15625 124.171875 209.679688 120.285156 207.257812 C 116.882812 205.320312 116.636719 203.359375 119.550781 201.421875 C 121.984375 198.980469 124.171875 198.496094 126.109375 199.957031 Z M 126.109375 199.957031 " fill-opacity="1" fill-rule="evenodd"/><path fill="#ffffff" d="M 75.847656 148.96875 C 76.332031 150.90625 76.085938 152.609375 75.117188 154.0625 C 74.148438 155.515625 72.683594 156 70.746094 155.515625 C 68.804688 155.03125 69.042969 153.328125 71.464844 150.410156 C 73.910156 147.503906 75.363281 147.019531 75.847656 148.96875 Z M 75.847656 148.96875 " fill-opacity="1" fill-rule="evenodd"/><path fill="#ffffff" d="M 64.917969 135.84375 C 66.375 136.824219 66.859375 138.039062 66.375 139.484375 C 65.886719 140.464844 64.671875 140.699219 62.722656 140.214844 C 61.28125 139.730469 61.023438 138.761719 62 137.296875 C 62.980469 135.359375 63.941406 134.875 64.917969 135.84375 Z M 64.917969 135.84375 " fill-opacity="1" fill-rule="evenodd"/><path fill="#ffffff" d="M 148.707031 122.730469 C 152.101562 125.164062 153.078125 127.101562 151.617188 128.554688 C 149.667969 130.011719 147.492188 130.257812 145.058594 129.289062 C 143.121094 128.308594 142.863281 126.855469 144.328125 124.917969 C 145.789062 122.492188 147.246094 121.761719 148.707031 122.730469 Z M 148.707031 122.730469 " fill-opacity="1" fill-rule="evenodd"/><path fill="#ffffff" d="M 142.152344 106.699219 C 145.070312 107.195312 146.277344 108.402344 145.789062 110.347656 C 144.8125 111.804688 143.367188 112.050781 141.417969 111.082031 C 138.015625 108.164062 138.253906 106.699219 142.152344 106.699219 Z M 142.152344 106.699219 " fill-opacity="1" fill-rule="evenodd"/><path fill="#ffffff" d="M 168.371094 189.03125 C 171.289062 189.515625 171.289062 191.214844 168.371094 194.125 C 165.460938 197.042969 163.523438 197.773438 162.542969 196.320312 C 161.574219 195.339844 161.8125 193.886719 163.277344 191.949219 C 165.226562 189.515625 166.917969 188.546875 168.371094 189.03125 Z M 168.371094 189.03125 " fill-opacity="1" fill-rule="evenodd"/></svg>